<!--?xml version="1.0" standalone="no"?-->
              <svg id="sw-js-blob-svg" viewBox="0 0 100 100" xmlns="http://www.w3.org/2000/svg" version="1.1">
                    <defs> 
                        <linearGradient id="sw-gradient" x1="0" x2="1" y1="1" y2="0">
                            <stop id="stop1" stop-color="rgba(6, 95, 70, 1)" offset="0%"></stop>
                            <stop id="stop2" stop-color="rgba(6, 95, 70, 0.44)" offset="100%"></stop>
                        </linearGradient>
                    </defs>
                <path fill="url(#sw-gradient)" d="M26.7,-30.7C33.5,-26.1,37,-16.7,37.7,-7.5C38.3,1.7,36,10.6,31.8,18.7C27.6,26.9,21.4,34.3,13.2,38.1C5,41.9,-5.2,42.1,-13.6,38.5C-22.1,35,-28.8,27.8,-34.4,19.3C-40,10.8,-44.6,1.1,-43.8,-8.5C-43,-18,-36.8,-27.3,-28.7,-31.6C-20.5,-35.9,-10.2,-35.2,-0.1,-35.1C10,-34.9,19.9,-35.3,26.7,-30.7Z" width="100%" height="100%" transform="translate(50 50)" stroke-width="0" style="transition: 0.3s;" stroke="url(#sw-gradient)"></path>
              </svg>