<!--?xml version="1.0" standalone="no"?-->
              <svg id="sw-js-blob-svg" viewBox="0 0 100 100" xmlns="http://www.w3.org/2000/svg" version="1.1">
                    <defs> 
                        <linearGradient id="sw-gradient" x1="0" x2="1" y1="1" y2="0">
                            <stop id="stop1" stop-color="rgba(255, 52.368, 0, 0.24)" offset="0%"></stop>
                            <stop id="stop2" stop-color="rgba(142.37, 0, 0, 0.86)" offset="100%"></stop>
                        </linearGradient>
                    </defs>
                <path fill="url(#sw-gradient)" d="M21.9,-26.8C28.1,-21,32.5,-13.7,34.7,-5.5C36.8,2.8,36.8,12,33.2,19.8C29.5,27.7,22.1,34.1,13.4,37.7C4.6,41.3,-5.5,42.1,-14.6,39.2C-23.8,36.3,-31.9,29.7,-36.2,21.4C-40.5,13,-40.9,2.9,-38.6,-6.3C-36.4,-15.5,-31.5,-23.6,-24.7,-29.3C-17.8,-35,-8.9,-38.3,-0.5,-37.7C7.9,-37.1,15.8,-32.6,21.9,-26.8Z" width="100%" height="100%" transform="translate(50 50)" stroke-width="0" style="transition: 0.3s;" stroke="url(#sw-gradient)"></path>
              </svg>