<!--?xml version="1.0" standalone="no"?-->
              <svg id="sw-js-blob-svg" viewBox="0 0 100 100" xmlns="http://www.w3.org/2000/svg" version="1.1">
                    <defs> 
                        <linearGradient id="sw-gradient" x1="0" x2="1" y1="1" y2="0">
                            <stop id="stop1" stop-color="rgba(0, 0, 0, 1)" offset="0%"></stop>
                            <stop id="stop2" stop-color="rgba(63.056, 80.897, 73.947, 0.98)" offset="100%"></stop>
                        </linearGradient>
                    </defs>
                <path fill="url(#sw-gradient)" d="M22.5,-25.7C30.1,-20.5,37.8,-14.3,40.3,-6.2C42.7,1.8,40,11.6,35.2,20.7C30.4,29.9,23.7,38.2,15.4,40.5C7.1,42.7,-2.8,38.8,-11.2,34.3C-19.6,29.7,-26.5,24.5,-30,17.7C-33.5,10.9,-33.6,2.5,-32.3,-5.8C-31,-14.1,-28.3,-22.3,-22.6,-27.8C-17,-33.3,-8.5,-36.1,-0.5,-35.5C7.5,-34.9,15,-30.8,22.5,-25.7Z" width="100%" height="100%" transform="translate(50 50)" stroke-width="0" style="transition: 0.3s;"></path>
              </svg>