<svg width="100%" height="100%" id="svg" viewBox="0 0 1440 390" xmlns="http://www.w3.org/2000/svg" ><defs><linearGradient id="gradient" x1="0%" y1="50%" x2="100%" y2="50%"><stop offset="5%" stop-color="#F78DA7"></stop><stop offset="95%" stop-color="#7bdcb5"></stop></linearGradient></defs><path d="M 0,400 L 0,100 C 27.55384192228769,69.3393124344309 55.10768384457538,38.67862486886179 90,62 C 124.89231615542462,85.32137513113821 167.12310654398618,162.62481295898377 212,198 C 256.8768934560138,233.37518704101623 304.3998899794798,226.82212329520317 347,228 C 389.6001100205202,229.17787670479683 427.2773335380945,238.08669386020358 460,278 C 492.7226664619055,317.9133061397964 520.4907758681421,388.8311012639824 548,430 C 575.5092241318579,471.1688987360176 602.7595629893369,482.588901083867 646,510 C 689.2404370106631,537.411098916133 748.4709721745105,580.8132944005497 785,599 C 821.5290278254895,617.1867055994503 835.3565483126212,610.1579213139345 870,631 C 904.6434516873788,651.8420786860655 960.1028345750044,700.5550203437126 1000,724 C 1039.8971654249956,747.4449796562874 1064.2321133873606,745.6219973112152 1096,774 C 1127.7678866126394,802.3780026887848 1166.9687118755528,860.9569904114269 1203,897 C 1239.0312881244472,933.0430095885731 1271.8930391104282,946.5500410430775 1321,967 C 1370.1069608895718,987.4499589569225 1435.4591316827348,1014.8428454162636 1458,1034 C 1480.5408683172652,1053.1571545837364 1460.2704341586327,1064.0785772918682 1440,1075 L 1440,400 L 0,400 Z" stroke="none" stroke-width="0" fill="url(#gradient)" fill-opacity="0.53" ></path><defs><linearGradient id="gradient" x1="0%" y1="50%" x2="100%" y2="50%"><stop offset="5%" stop-color="#F78DA7"></stop><stop offset="95%" stop-color="#7bdcb5"></stop></linearGradient></defs><path d="M 0,400 L 0,233 C 36.89181558522293,217.05396398183802 73.78363117044586,201.10792796367605 115,213 C 156.21636882955414,224.89207203632395 201.75729090343958,264.6222521271338 236,303 C 270.2427090965604,341.3777478728662 293.1872052157957,378.4030635277888 326,412 C 358.8127947842043,445.5969364722112 401.49388823337756,475.76549376171107 440,484 C 478.50611176662244,492.23450623828893 512.837241850694,478.53496142536665 552,490 C 591.162758149306,501.46503857463335 635.1571443638466,538.0946605368223 673,576 C 710.8428556361534,613.9053394631777 742.5341806939197,653.0863964273445 779,696 C 815.4658193060803,738.9136035726555 856.7061328604751,785.5597537537996 895,798 C 933.2938671395249,810.4402462462004 968.6412878641806,788.6745885574572 1003,801 C 1037.3587121358194,813.3254114425428 1070.7287156828022,859.7418920163718 1102,902 C 1133.2712843171978,944.2581079836282 1162.4438494046099,982.3578433770551 1201,1006 C 1239.5561505953901,1029.6421566229449 1287.495886698759,1038.826734475408 1328,1059 C 1368.504113301241,1079.173265524592 1401.5726038003545,1110.335218721312 1419,1137 C 1436.4273961996455,1163.664781278688 1438.2136980998228,1185.8323906393439 1440,1208 L 1440,400 L 0,400 Z" stroke="none" stroke-width="0" fill="url(#gradient)" fill-opacity="1" ></path></svg>