<!--?xml version="1.0" standalone="no"?-->
              <svg id="sw-js-blob-svg" viewBox="0 0 100 100" xmlns="http://www.w3.org/2000/svg" version="1.1">
                    <defs> 
                        <linearGradient id="sw-gradient" x1="0" x2="1" y1="1" y2="0">
                            <stop id="stop1" stop-color="rgba(235.718, 4.076, 4.076, 0.46)" offset="0%"></stop>
                            <stop id="stop2" stop-color="rgba(206.12, 43.121, 9.382, 1)" offset="100%"></stop>
                        </linearGradient>
                    </defs>
                <path fill="url(#sw-gradient)" d="M10.1,-14.8C17,-11.3,29.3,-15.1,32.1,-13.4C35,-11.6,28.5,-4.2,27.2,3.9C26,11.9,30,20.7,27,22.4C24,24,13.9,18.6,6.7,18.8C-0.4,19,-4.7,24.8,-10.8,27.3C-16.9,29.8,-24.8,29.1,-30.4,25C-36,20.9,-39.3,13.5,-38.7,6.6C-38.1,-0.4,-33.7,-6.9,-29.9,-13.1C-26.2,-19.3,-23.1,-25.3,-18.3,-29.7C-13.4,-34,-6.7,-36.8,-2.5,-32.8C1.6,-28.9,3.2,-18.2,10.1,-14.8Z" width="100%" height="100%" transform="translate(50 50)" stroke-width="0" style="transition: 0.3s;"></path>
              </svg>